<svg width="64" height="64" viewBox="0 0 64 64" fill="none" xmlns="http://www.w3.org/2000/svg">
<g filter="url(#filter0_d_1484_506)">
<circle cx="32" cy="30" r="30" fill="#1E3050" fill-opacity="0.3" shape-rendering="crispEdges"/>
</g>
<path d="M30.4496 13.3454C31.4326 12.8872 32.5673 12.8872 33.5503 13.3454L47.9718 20.0524C48.5326 20.3114 48.8889 20.8758 48.8889 21.5C48.8889 22.1243 48.5326 22.6887 47.9718 22.9477L33.5503 29.6547C32.5673 30.1129 31.4326 30.1129 30.4496 29.6547L16.0281 22.9477C15.4673 22.6821 15.1111 22.1176 15.1111 21.5C15.1111 20.8825 15.4673 20.3114 16.0281 20.0524L30.4496 13.3454ZM44.4621 26.9188L47.9718 28.5524C48.5326 28.8114 48.8889 29.3758 48.8889 30C48.8889 30.6243 48.5326 31.1887 47.9718 31.4477L33.5503 38.1547C32.5673 38.6129 31.4326 38.6129 30.4496 38.1547L16.0281 31.4477C15.4673 31.1821 15.1111 30.6176 15.1111 30C15.1111 29.3825 15.4673 28.8114 16.0281 28.5524L19.5378 26.9188L29.5656 31.5805C31.1093 32.2977 32.8906 32.2977 34.4343 31.5805L44.4621 26.9188ZM34.4343 40.0805L44.4621 35.4188L47.9718 37.0524C48.5326 37.3114 48.8889 37.8758 48.8889 38.5C48.8889 39.1243 48.5326 39.6887 47.9718 39.9477L33.5503 46.6547C32.5673 47.1129 31.4326 47.1129 30.4496 46.6547L16.0281 39.9477C15.4673 39.6821 15.1111 39.1176 15.1111 38.5C15.1111 37.8825 15.4673 37.3114 16.0281 37.0524L19.5378 35.4188L29.5656 40.0805C31.1093 40.7977 32.8906 40.7977 34.4343 40.0805Z" fill="#1E3050"/>
<defs>
<filter id="filter0_d_1484_506" x="0" y="0" width="64" height="64" filterUnits="userSpaceOnUse" color-interpolation-filters="sRGB">
<feFlood flood-opacity="0" result="BackgroundImageFix"/>
<feColorMatrix in="SourceAlpha" type="matrix" values="0 0 0 0 0 0 0 0 0 0 0 0 0 0 0 0 0 0 127 0" result="hardAlpha"/>
<feOffset dy="2"/>
<feGaussianBlur stdDeviation="1"/>
<feComposite in2="hardAlpha" operator="out"/>
<feColorMatrix type="matrix" values="0 0 0 0 0.117647 0 0 0 0 0.188235 0 0 0 0 0.313726 0 0 0 0.25 0"/>
<feBlend mode="normal" in2="BackgroundImageFix" result="effect1_dropShadow_1484_506"/>
<feBlend mode="normal" in="SourceGraphic" in2="effect1_dropShadow_1484_506" result="shape"/>
</filter>
</defs>
</svg>
