<svg width="16" height="13" viewBox="0 0 16 13" fill="none" xmlns="http://www.w3.org/2000/svg">
<path d="M10.7364 7.46651C10.7364 8.82932 9.62776 9.93796 8.26495 9.93796C6.90213 9.93796 5.79392 8.82932 5.79392 7.46651C5.79392 6.1037 6.90213 4.99507 8.26495 4.99507C9.62776 4.99507 10.7364 6.10412 10.7364 7.46651ZM15.9271 3.95718V10.9767C15.9271 11.9125 15.1684 12.6712 14.2326 12.6712H2.2973C1.3615 12.6712 0.602783 11.9125 0.602783 10.9767V3.95718C0.602783 3.02138 1.3615 2.26267 2.2973 2.26267H4.38155V1.67636C4.38155 0.85749 5.04495 0.193665 5.86425 0.193665H10.6656C11.4849 0.193665 12.1483 0.85749 12.1483 1.67636V2.26224H14.2326C15.1684 2.26266 15.9271 3.02138 15.9271 3.95718ZM12.0073 7.46651C12.0073 5.40302 10.3284 3.72418 8.26495 3.72418C6.20188 3.72418 4.52304 5.40302 4.52304 7.46651C4.52304 9.53001 6.20188 11.2088 8.26495 11.2088C10.3284 11.2088 12.0073 9.53001 12.0073 7.46651Z" fill="white"/>
</svg>
