<svg width="24" height="24" viewBox="0 0 24 24" fill="none" xmlns="http://www.w3.org/2000/svg">
<path d="M19.5 23.5H15.5V16.5C15.5 15.3989 14.6011 14.5 13.5 14.5H10.5C9.39886 14.5 8.5 15.3989 8.5 16.5V23.5H4.5C3.95114 23.5 3.5 23.0489 3.5 22.5V13.5V13H3H1.5C0.925784 13 0.5 12.57 0.5 12C0.5 11.5747 0.693698 11.3588 1.1821 10.85L10.8485 1.19107C10.8917 1.15026 10.9327 1.11102 10.972 1.07341C11.3505 0.711342 11.5715 0.5 12 0.5C12.4285 0.5 12.6495 0.711342 13.028 1.07341C13.0673 1.11103 13.1083 1.15028 13.1515 1.19109L16.1466 4.18323L17 5.03575V3.8295V3C17 2.45114 17.4511 2 18 2H19.5C20.0489 2 20.5 2.45114 20.5 3V8.3265V8.53371L20.6466 8.68017L22.8179 10.85C23.3063 11.3588 23.5 11.5747 23.5 12C23.5 12.57 23.0742 13 22.5 13H21H20.5V13.5V22.5C20.5 23.0489 20.0489 23.5 19.5 23.5Z" stroke="#9DA7AD"/>
</svg>
