<svg width="16" height="16" viewBox="0 0 16 16" fill="none" xmlns="http://www.w3.org/2000/svg">
<g clip-path="url(#clip0_1004_843)">
<path d="M8.76645 13.8866L8 14.653L7.23355 13.8866L7.22274 13.8758L7.21129 13.8656C5.12289 12.0182 3.43596 10.5058 2.26627 9.08265C1.10229 7.66648 0.5 6.39653 0.5 5.04014C0.5 2.83628 2.19614 1.14014 4.4 1.14014C5.61055 1.14014 6.83177 1.71356 7.61831 2.64311L8 3.0942L8.38169 2.64311C9.16823 1.71356 10.3894 1.14014 11.6 1.14014C13.8039 1.14014 15.5 2.83628 15.5 5.04014C15.5 6.39653 14.8977 7.66648 13.7337 9.08265C12.564 10.5058 10.8771 12.0182 8.78871 13.8656L8.77726 13.8758L8.76645 13.8866Z" stroke="#3D4553"/>
</g>
<defs>
<clipPath id="clip0_1004_843">
<rect width="16" height="16" fill="white"/>
</clipPath>
</defs>
</svg>
