<svg width="20" height="20" viewBox="0 0 20 20" fill="none" xmlns="http://www.w3.org/2000/svg">
<g clip-path="url(#clip0_1004_799)">
<path d="M4.58105 15.3382V19.2694C4.58105 19.7119 5.12081 19.92 5.42082 19.607L10.0543 15.3382H13.961C15.1789 15.3382 16.1734 14.3437 16.1734 13.1258V4.61066C16.1734 3.39294 15.1789 2.39844 13.961 2.39844H2.85922C1.64126 2.39844 0.646761 3.3927 0.646761 4.61066V13.1258C0.646761 14.3437 1.64126 15.3382 2.85922 15.3382H4.58105ZM12.4789 7.70919C12.0176 7.70919 11.6436 8.08313 11.6436 8.54448C11.6436 9.00582 12.0176 9.37976 12.4789 9.37976C12.9402 9.37976 13.3142 9.00582 13.3142 8.54448C13.3142 8.08313 12.9402 7.70919 12.4789 7.70919ZM4.34128 7.70919C3.87994 7.70919 3.506 8.08313 3.506 8.54448C3.506 9.00582 3.87994 9.37976 4.34128 9.37976C4.80262 9.37976 5.17656 9.00582 5.17656 8.54448C5.17656 8.08313 4.80262 7.70919 4.34128 7.70919ZM7.05382 7.70919C6.59248 7.70919 6.21854 8.08313 6.21854 8.54448C6.21854 9.00582 6.59248 9.37976 7.05382 9.37976C7.51516 9.37976 7.8891 9.00582 7.8891 8.54448C7.8891 8.08313 7.51516 7.70919 7.05382 7.70919ZM9.76636 7.70919C9.30502 7.70919 8.93108 8.08313 8.93108 8.54448C8.93108 9.00582 9.30502 9.37976 9.76636 9.37976C10.2277 9.37976 10.6016 9.00582 10.6016 8.54448C10.6016 8.08313 10.2277 7.70919 9.76636 7.70919ZM17.1408 12.2066C16.4992 12.2066 16.4992 13.1825 17.1408 13.1825C18.3587 13.1825 19.3532 12.188 19.3532 10.97V2.4549C19.3532 1.23717 18.3587 0.242676 17.1408 0.242676H6.03877C5.39719 0.242676 5.39719 1.21827 6.03877 1.21827H17.1408C17.8199 1.21827 18.3774 1.77576 18.3774 2.4549V10.97C18.3774 11.6491 17.8199 12.2066 17.1408 12.2066ZM5.55664 18.158V14.8502C5.55664 14.5809 5.33814 14.3624 5.06884 14.3624H2.85922C2.18008 14.3624 1.62236 13.8049 1.62236 13.1258V4.61066C1.62236 3.93152 2.18008 3.37404 2.85922 3.37404H13.961C14.6403 3.37404 15.1978 3.93152 15.1978 4.61066V13.1258C15.1978 13.8049 14.6403 14.3624 13.961 14.3624L9.86534 14.3636C9.74746 14.3636 9.62912 14.4059 9.53557 14.4921L5.55664 18.158Z" fill="#3D4553"/>
</g>
<defs>
<clipPath id="clip0_1004_799">
<rect width="20" height="20" fill="white" transform="matrix(-1 0 0 1 20 0)"/>
</clipPath>
</defs>
</svg>
