<svg width="16" height="16" viewBox="0 0 16 16" fill="none" xmlns="http://www.w3.org/2000/svg">
<path d="M15.4688 14.5656L11.7437 10.8406C12.6531 9.73125 13.1969 8.31563 13.1969 6.76875C13.1969 3.22188 10.3188 0.34375 6.77187 0.34375C3.22187 0.34375 0.34375 3.22187 0.34375 6.77187C0.34375 10.3219 3.22187 13.2 6.77187 13.2C8.31563 13.2 9.73438 12.6562 10.8438 11.7469L14.5656 15.4688C14.8156 15.7188 15.2188 15.7188 15.4688 15.4688C15.7188 15.2188 15.7188 14.8156 15.4688 14.5656ZM1.61875 6.77187C1.61875 3.92812 3.925 1.62188 6.76875 1.62188C9.6125 1.62188 11.9187 3.92812 11.9187 6.77187C11.9187 9.61563 9.6125 11.9219 6.76875 11.9219C3.925 11.9219 1.61875 9.61563 1.61875 6.77187Z" fill="#3D4553"/>
</svg>
