<svg width="24" height="24" viewBox="0 0 24 24" fill="none" xmlns="http://www.w3.org/2000/svg">
<g clip-path="url(#clip0_1006_2423)">
<path d="M5.49728 18.4062V23.1236C5.49728 23.6546 6.145 23.9043 6.505 23.5287L12.0652 18.4062H16.7532C18.2147 18.4062 19.4081 17.2128 19.4081 15.7512V5.53309C19.4081 4.07182 18.2147 2.87842 16.7532 2.87842H3.43109C1.96954 2.87842 0.77614 4.07153 0.77614 5.53309V15.7512C0.77614 17.2128 1.96954 18.4062 3.43109 18.4062H5.49728ZM14.9747 9.25132C14.4211 9.25132 13.9724 9.70005 13.9724 10.2537C13.9724 10.8073 14.4211 11.256 14.9747 11.256C15.5283 11.256 15.977 10.8073 15.977 10.2537C15.977 9.70005 15.5283 9.25132 14.9747 9.25132ZM5.20956 9.25132C4.65595 9.25132 4.20722 9.70005 4.20722 10.2537C4.20722 10.8073 4.65595 11.256 5.20956 11.256C5.76317 11.256 6.2119 10.8073 6.2119 10.2537C6.2119 9.70005 5.76317 9.25132 5.20956 9.25132ZM8.46461 9.25132C7.911 9.25132 7.46227 9.70005 7.46227 10.2537C7.46227 10.8073 7.911 11.256 8.46461 11.256C9.01822 11.256 9.46695 10.8073 9.46695 10.2537C9.46695 9.70005 9.01822 9.25132 8.46461 9.25132ZM11.7197 9.25132C11.166 9.25132 10.7173 9.70005 10.7173 10.2537C10.7173 10.8073 11.166 11.256 11.7197 11.256C12.2733 11.256 12.722 10.8073 12.722 10.2537C12.722 9.70005 12.2733 9.25132 11.7197 9.25132ZM20.5689 14.6482C19.799 14.6482 19.799 15.8192 20.5689 15.8192C22.0305 15.8192 23.2239 14.6259 23.2239 13.1643V2.94617C23.2239 1.4849 22.0305 0.291504 20.5689 0.291504H7.24655C6.47666 0.291504 6.47666 1.46222 7.24655 1.46222H20.5689C21.3839 1.46222 22.0529 2.1312 22.0529 2.94617V13.1643C22.0529 13.9793 21.3839 14.6482 20.5689 14.6482ZM6.668 21.7899V17.8205C6.668 17.4974 6.40579 17.2352 6.08264 17.2352H3.43109C2.61613 17.2352 1.94686 16.5662 1.94686 15.7512V5.53309C1.94686 4.71812 2.61613 4.04914 3.43109 4.04914H16.7532C17.5684 4.04914 18.2374 4.71812 18.2374 5.53309V15.7512C18.2374 16.5662 17.5684 17.2352 16.7532 17.2352L11.8384 17.2366C11.697 17.2366 11.555 17.2873 11.4427 17.3908L6.668 21.7899Z" fill="#9DA7AD"/>
</g>
<defs>
<clipPath id="clip0_1006_2423">
<rect width="24" height="24" fill="white" transform="matrix(-1 0 0 1 24 0)"/>
</clipPath>
</defs>
</svg>
