<svg width="20" height="14" viewBox="0 0 20 14" fill="none" xmlns="http://www.w3.org/2000/svg">
<path d="M18.9743 0.333252H1.02566C0.461523 0.333252 0 0.794775 0 1.35888V12.6409C0 13.205 0.461523 13.6666 1.02566 13.6666H18.9744C19.5384 13.6666 20 13.2051 20 12.6409V1.35888C20 0.794775 19.5385 0.333252 18.9743 0.333252ZM18.5895 1.10243L10.59 7.10251C10.4462 7.21196 10.2254 7.28044 9.99996 7.27942C9.77457 7.28044 9.55383 7.21196 9.40996 7.10251L1.41051 1.10243H18.5895ZM14.3164 7.4984L18.6754 12.883C18.6798 12.8884 18.6851 12.8925 18.6898 12.8974H1.31023C1.31484 12.8923 1.32023 12.8884 1.32461 12.883L5.68359 7.4984C5.81715 7.33329 5.79184 7.09122 5.62641 6.95735C5.46129 6.82379 5.21922 6.84911 5.08563 7.01426L0.769219 12.3463V1.58321L8.94867 7.71782C9.25613 7.9468 9.6302 8.04758 9.99992 8.0486C10.3691 8.04782 10.7435 7.94704 11.0512 7.71782L19.2306 1.58321V12.3463L14.9143 7.01426C14.7807 6.84915 14.5384 6.82376 14.3736 6.95735C14.2082 7.0909 14.1828 7.33329 14.3164 7.4984Z" fill="#3397A2"/>
</svg>
