<svg width="17" height="16" viewBox="0 0 17 16" fill="none" xmlns="http://www.w3.org/2000/svg">
<path d="M11.8857 9.95078L11.4689 9.67466C11.2446 10.0132 10.561 10.8241 10.3404 11.0768L10.3386 11.0789C10.3229 11.097 10.311 11.1088 10.3028 11.1161C10.2995 11.1154 10.2958 11.1145 10.2915 11.1134C10.2612 11.1057 10.2133 11.0885 10.142 11.0528C10.069 11.016 9.97553 10.975 9.86379 10.9259C9.33412 10.6935 8.39449 10.281 7.28431 9.28382L7.28429 9.2838C6.24644 8.35166 5.53636 7.19074 5.33035 6.8336L5.32999 6.83297C5.31967 6.81515 5.31303 6.80133 5.3088 6.79127C5.31073 6.78871 5.31293 6.78587 5.31542 6.78275C5.33657 6.75635 5.36475 6.72701 5.41219 6.67958L5.41338 6.67839C5.53811 6.55285 5.69421 6.36247 5.8289 6.19821C5.88933 6.12451 5.94545 6.05607 5.99249 6.0011L5.99449 5.99875C6.19454 5.76203 6.28924 5.56716 6.38391 5.37234C6.39889 5.34153 6.41386 5.31072 6.42925 5.27975C6.65251 4.83034 6.52313 4.43382 6.39818 4.18358C6.39818 4.18358 6.39818 4.18357 6.39818 4.18357C6.39788 4.18292 6.39375 4.17423 6.38435 4.1527C6.37534 4.13205 6.36381 4.10496 6.34976 4.07143C6.3217 4.00446 6.28561 3.91653 6.24312 3.81211C6.184 3.66682 6.11378 3.49277 6.03735 3.30333C6.00385 3.22031 5.96916 3.13433 5.9337 3.04652C5.70297 2.47531 5.43775 1.82297 5.26928 1.44597L5.26915 1.44568L6.95018 9.65579C8.12822 10.714 9.15186 11.161 9.6717 11.3881C9.77389 11.4327 9.85661 11.4688 9.9172 11.4994C10.2861 11.6844 10.5022 11.6544 10.717 11.4057C10.9331 11.1582 11.6398 10.322 11.8857 9.95078ZM11.8857 9.95078L11.4684 9.6753C11.6447 9.40825 11.8839 9.21222 12.2096 9.17483C12.4768 9.14417 12.7294 9.23672 12.8835 9.2932L12.8885 9.29504C13.0879 9.36805 13.6562 9.63919 14.1841 9.89575C14.7275 10.1599 15.2754 10.4321 15.4628 10.5268M11.8857 9.95078C12.1316 9.5783 12.3787 9.64079 12.7166 9.76453C13.0544 9.88828 14.8689 10.787 15.2377 10.9732M15.4628 10.5268C15.4629 10.5268 15.463 10.5268 15.4631 10.5269L15.2377 10.9732M15.4628 10.5268C15.4627 10.5267 15.4626 10.5266 15.4625 10.5266L15.2377 10.9732M15.4628 10.5268C15.5185 10.5548 15.5787 10.5841 15.639 10.6134C15.7472 10.6661 15.8555 10.7188 15.9375 10.764C16.0667 10.8353 16.2561 10.9507 16.3752 11.1511C16.4625 11.2976 16.4843 11.4761 16.4931 11.5876C16.504 11.726 16.502 11.8887 16.4868 12.066C16.4564 12.4215 16.3704 12.8659 16.202 13.3404L16.2019 13.3406C15.9907 13.9345 15.4184 14.4362 14.8961 14.776C14.3678 15.1198 13.7412 15.3938 13.2854 15.4359C13.2317 15.4409 13.1747 15.4477 13.1132 15.4551C12.8302 15.4893 12.4528 15.5347 11.8734 15.4567C11.1822 15.3635 10.2009 15.0992 8.62615 14.474M15.2377 10.9732C15.3102 11.0097 15.378 11.0426 15.4407 11.0731C15.6983 11.1981 15.8717 11.2823 15.9456 11.4069C16.0388 11.5632 16.0388 12.3057 15.7308 13.1731C15.4228 14.0393 13.9163 14.8755 13.2394 14.938C13.1745 14.944 13.11 14.9517 13.0436 14.9596C12.418 15.0341 11.6289 15.1281 8.81062 14.0093M8.62615 14.474C8.62616 14.474 8.62616 14.474 8.62617 14.474L8.81062 14.0093M8.62615 14.474L8.81062 14.0093M8.62615 14.474C6.65237 13.6906 5.06231 12.291 3.9526 11.0785C3.39518 10.4694 2.95285 9.90084 2.63804 9.46881C2.4805 9.25261 2.35483 9.0705 2.26285 8.93488C2.22737 8.88256 2.1966 8.83671 2.17165 8.79953C2.16447 8.78883 2.15777 8.77884 2.15158 8.76963L2.11776 8.71963C2.10983 8.70806 2.10643 8.70332 2.10597 8.70268L2.10508 8.70148L2.1005 8.69531C1.99636 8.55515 1.60558 8.02921 1.23792 7.30054C0.868167 6.56772 0.5 5.58785 0.5 4.56231C0.5 2.6541 1.451 1.63403 1.85012 1.20593C1.87659 1.17753 1.90064 1.15174 1.92182 1.12846L2.29163 1.46498L1.92126 1.12908C2.36988 0.634413 2.91405 0.5 3.27525 0.5H3.2816C3.52266 0.499999 3.77667 0.499999 4.00156 0.509135C4.00179 0.509144 4.00203 0.509154 4.00227 0.509164L2.50649 8.40336C2.52067 8.42233 2.54769 8.4626 2.58719 8.52145C3.06281 9.23022 5.34749 12.6348 8.81062 14.0093" stroke="white"/>
</svg>
