<svg width="18" height="18" viewBox="0 0 18 18" fill="none" xmlns="http://www.w3.org/2000/svg">
<path d="M11.6849 8.99994C11.6849 10.4849 10.4849 11.6849 8.99994 11.6849C7.51494 11.6849 6.31494 10.4849 6.31494 8.99994C6.31494 7.51494 7.51494 6.31494 8.99994 6.31494C10.4849 6.31494 11.6849 7.51494 11.6849 8.99994Z" stroke="#859299" stroke-linecap="round" stroke-linejoin="round"/>
<path d="M9 15.2025C11.6475 15.2025 14.115 13.6425 15.8325 10.9425C16.5075 9.88501 16.5075 8.10751 15.8325 7.05001C14.115 4.35001 11.6475 2.79001 9 2.79001C6.3525 2.79001 3.885 4.35001 2.1675 7.05001C1.4925 8.10751 1.4925 9.88501 2.1675 10.9425C3.885 13.6425 6.3525 15.2025 9 15.2025Z" stroke="#859299" stroke-linecap="round" stroke-linejoin="round"/>
</svg>
