<svg width="20" height="20" viewBox="0 0 20 20" fill="none" xmlns="http://www.w3.org/2000/svg">
<path d="M7.50002 18.3332H12.5C16.6667 18.3332 18.3334 16.6665 18.3334 12.4998V7.49984C18.3334 3.33317 16.6667 1.6665 12.5 1.6665H7.50002C3.33335 1.6665 1.66669 3.33317 1.66669 7.49984V12.4998C1.66669 16.6665 3.33335 18.3332 7.50002 18.3332Z" stroke="#3397A2" stroke-linecap="round" stroke-linejoin="round"/>
<path d="M7.49998 8.33333C8.42045 8.33333 9.16665 7.58714 9.16665 6.66667C9.16665 5.74619 8.42045 5 7.49998 5C6.5795 5 5.83331 5.74619 5.83331 6.66667C5.83331 7.58714 6.5795 8.33333 7.49998 8.33333Z" stroke="#3397A2" stroke-linecap="round" stroke-linejoin="round"/>
<path d="M2.22498 15.7918L6.33331 13.0335C6.99164 12.5918 7.94164 12.6418 8.53331 13.1501L8.80831 13.3918C9.45831 13.9501 10.5083 13.9501 11.1583 13.3918L14.625 10.4168C15.275 9.85846 16.325 9.85846 16.975 10.4168L18.3333 11.5835" stroke="#3397A2" stroke-linecap="round" stroke-linejoin="round"/>
</svg>
