<svg width="16" height="16" viewBox="0 0 16 16" fill="none" xmlns="http://www.w3.org/2000/svg">
<path d="M8.76645 13.8865L8 14.6529L7.23355 13.8865L7.22274 13.8756L7.21129 13.8655C5.12289 12.0181 3.43596 10.5056 2.26627 9.08253C1.10229 7.66636 0.5 6.39641 0.5 5.04001C0.5 2.83616 2.19614 1.14001 4.4 1.14001C5.61055 1.14001 6.83177 1.71344 7.61831 2.64299L8 3.09408L8.38169 2.64299C9.16823 1.71344 10.3894 1.14001 11.6 1.14001C13.8039 1.14001 15.5 2.83616 15.5 5.04001C15.5 6.39641 14.8977 7.66636 13.7337 9.08253C12.564 10.5056 10.8771 12.0181 8.78871 13.8655L8.77726 13.8756L8.76645 13.8865Z" stroke="white"/>
</svg>
