<svg width="22" height="22" viewBox="0 0 22 22" fill="none" xmlns="http://www.w3.org/2000/svg">
<path d="M11 0C6.60664 0 3.03241 3.57423 3.03241 7.96752C3.03241 13.4197 10.1626 21.4239 10.4662 21.762C10.7513 22.0796 11.2492 22.079 11.5338 21.762C11.8374 21.4239 18.9675 13.4197 18.9675 7.96752C18.9675 3.57423 15.3933 0 11 0ZM11 20.1837C8.6003 17.3332 4.46722 11.7095 4.46722 7.96761C4.46722 4.36537 7.39778 1.43481 11 1.43481C14.6022 1.43481 17.5327 4.36537 17.5327 7.96757C17.5327 11.7096 13.4003 17.3323 11 20.1837Z" fill="#859299"/>
<path d="M11 3.95886C8.78957 3.95886 6.99133 5.75715 6.99133 7.96755C6.99133 10.1779 8.78962 11.9762 11 11.9762C13.2103 11.9762 15.0086 10.1779 15.0086 7.96755C15.0086 5.75715 13.2103 3.95886 11 3.95886ZM11 10.5414C9.58071 10.5414 8.42614 9.3868 8.42614 7.96755C8.42614 6.54829 9.58075 5.39367 11 5.39367C12.4192 5.39367 13.5738 6.54829 13.5738 7.96755C13.5738 9.3868 12.4192 10.5414 11 10.5414Z" fill="#859299"/>
</svg>
