<svg width="24" height="24" viewBox="0 0 24 24" fill="none" xmlns="http://www.w3.org/2000/svg">
<g clip-path="url(#clip0_1249_474)">
<path d="M20.9996 14L17.9996 11H10.9996C10.7344 11 10.4801 10.8946 10.2925 10.7071C10.105 10.5196 9.99963 10.2652 9.99963 10V4C9.99963 3.73478 10.105 3.48043 10.2925 3.29289C10.4801 3.10536 10.7344 3 10.9996 3H19.9996C20.2649 3 20.5192 3.10536 20.7067 3.29289C20.8943 3.48043 20.9996 3.73478 20.9996 4V14Z" stroke="#3D4553" stroke-width="1.5" stroke-linecap="round" stroke-linejoin="round"/>
<path d="M13.9998 15V17C13.9998 17.2652 13.8944 17.5196 13.7069 17.7071C13.5193 17.8946 13.265 18 12.9998 18H5.99976L2.99976 21V11C2.99976 10.7348 3.10511 10.4804 3.29265 10.2929C3.48019 10.1054 3.73454 10 3.99976 10H5.99976" stroke="#3D4553" stroke-width="1.5" stroke-linecap="round" stroke-linejoin="round"/>
</g>
<defs>
<clipPath id="clip0_1249_474">
<rect width="24" height="24" fill="white"/>
</clipPath>
</defs>
</svg>
