<svg width="24" height="24" viewBox="0 0 24 24" fill="none" xmlns="http://www.w3.org/2000/svg">
<g clip-path="url(#clip0_1006_1736)">
<path d="M23.2031 21.8484L17.6156 16.2609C18.9797 14.5969 19.7953 12.4734 19.7953 10.1531C19.7953 4.83281 15.4781 0.515625 10.1578 0.515625C4.83281 0.515625 0.515625 4.83281 0.515625 10.1578C0.515625 15.4828 4.83281 19.8 10.1578 19.8C12.4734 19.8 14.6016 18.9844 16.2656 17.6203L21.8484 23.2031C22.2234 23.5781 22.8281 23.5781 23.2031 23.2031C23.5781 22.8281 23.5781 22.2234 23.2031 21.8484ZM2.42812 10.1578C2.42812 5.89219 5.8875 2.43281 10.1531 2.43281C14.4188 2.43281 17.8781 5.89219 17.8781 10.1578C17.8781 14.4234 14.4188 17.8828 10.1531 17.8828C5.8875 17.8828 2.42812 14.4234 2.42812 10.1578Z" fill="#9DA7AD"/>
</g>
<defs>
<clipPath id="clip0_1006_1736">
<rect width="24" height="24" fill="white"/>
</clipPath>
</defs>
</svg>
