<svg width="24" height="24" viewBox="0 0 24 24" fill="none" xmlns="http://www.w3.org/2000/svg">
<g clip-path="url(#clip0_1006_1850)">
<path d="M23.3 12C23.3 18.2409 18.2409 23.3 12 23.3C5.7591 23.3 0.7 18.2409 0.7 12C0.7 5.7591 5.7591 0.7 12 0.7C18.2409 0.7 23.3 5.7591 23.3 12Z" fill="white" stroke="#9DA7AD" stroke-width="1.4"/>
<path d="M14.8977 12.3328C16.1074 11.4217 16.891 9.9742 16.891 8.34684C16.891 5.59706 14.6538 3.35986 11.9038 3.35986C9.15405 3.35986 6.91685 5.59706 6.91685 8.34684C6.91685 9.9742 7.70029 11.4217 8.90991 12.3328C5.67126 13.5484 3.35992 16.6765 3.35992 20.3347H4.90309C4.90309 16.4744 8.04369 13.334 11.904 13.334C15.7642 13.334 18.9048 16.4744 18.9048 20.3347H20.4479C20.4477 16.6765 18.1366 13.5484 14.8977 12.3328ZM8.46002 8.34684C8.46002 6.44781 10.0048 4.90303 11.9038 4.90303C13.8028 4.90303 15.3476 6.44781 15.3476 8.34684C15.3476 10.2459 13.8028 11.7908 11.9038 11.7908C10.0048 11.7908 8.46002 10.2459 8.46002 8.34684Z" fill="#9DA7AD"/>
</g>
<defs>
<clipPath id="clip0_1006_1850">
<rect width="24" height="24" fill="white"/>
</clipPath>
</defs>
</svg>
