<svg width="24" height="24" viewBox="0 0 24 24" fill="none" xmlns="http://www.w3.org/2000/svg">
<path d="M14.2458 9.83496H2.04025C1.76937 9.83496 1.50959 9.94256 1.31804 10.1341C1.1265 10.3256 1.01888 10.5854 1.01886 10.8563V18.929C1.01887 19.1999 1.12648 19.4596 1.31803 19.6512C1.50957 19.8427 1.76936 19.9504 2.04025 19.9504H5.81998C5.96477 19.9504 6.10362 20.0079 6.206 20.1103C6.30838 20.2126 6.3659 20.3515 6.36591 20.4963V22.4017C6.36591 22.5179 6.39955 22.6316 6.46279 22.7291C6.52602 22.8266 6.61613 22.9037 6.72224 22.9511C6.82835 22.9985 6.94591 23.0141 7.06072 22.9962C7.17553 22.9782 7.28268 22.9273 7.36922 22.8498L10.3692 20.161C10.5206 20.0254 10.7168 19.9503 10.9201 19.9503H14.2457C14.5166 19.9503 14.7764 19.8426 14.9679 19.6511C15.1595 19.4596 15.2671 19.1998 15.2671 18.9289V10.8563C15.2671 10.5854 15.1595 10.3256 14.9679 10.1341C14.7764 9.94259 14.5166 9.83498 14.2458 9.83496ZM8.14296 16.5954H4.12783C4.06034 16.597 3.99319 16.5852 3.93035 16.5605C3.86751 16.5358 3.81024 16.4987 3.76192 16.4516C3.7136 16.4044 3.6752 16.3481 3.64899 16.2859C3.62277 16.2236 3.60926 16.1568 3.60926 16.0893C3.60926 16.0218 3.62277 15.9549 3.64899 15.8927C3.6752 15.8305 3.7136 15.7741 3.76192 15.727C3.81024 15.6798 3.86751 15.6428 3.93035 15.6181C3.99319 15.5934 4.06034 15.5815 4.12783 15.5832H8.14296C8.21046 15.5815 8.2776 15.5934 8.34044 15.6181C8.40329 15.6428 8.46055 15.6798 8.50887 15.727C8.55719 15.7741 8.59559 15.8305 8.62181 15.8927C8.64803 15.9549 8.66153 16.0218 8.66153 16.0893C8.66153 16.1568 8.64803 16.2236 8.62181 16.2859C8.59559 16.3481 8.55719 16.4044 8.50887 16.4516C8.46055 16.4987 8.40329 16.5358 8.34044 16.5605C8.2776 16.5852 8.21046 16.597 8.14296 16.5954ZM12.1585 16.5954H10.5925C10.525 16.597 10.4579 16.5852 10.395 16.5605C10.3322 16.5358 10.2749 16.4987 10.2266 16.4516C10.1783 16.4044 10.1399 16.3481 10.1137 16.2859C10.0875 16.2236 10.074 16.1568 10.074 16.0893C10.074 16.0218 10.0875 15.9549 10.1137 15.8927C10.1399 15.8305 10.1783 15.7741 10.2266 15.727C10.2749 15.6798 10.3322 15.6428 10.395 15.6181C10.4579 15.5934 10.525 15.5815 10.5925 15.5832H12.1585C12.2906 15.5864 12.4162 15.6411 12.5084 15.7357C12.6007 15.8303 12.6524 15.9572 12.6524 16.0893C12.6524 16.2214 12.6007 16.3483 12.5084 16.4429C12.4162 16.5374 12.2906 16.5922 12.1585 16.5954ZM12.1585 14.0312H4.12783C4.06034 14.0328 3.99319 14.0209 3.93035 13.9962C3.86751 13.9716 3.81024 13.9345 3.76192 13.8874C3.7136 13.8402 3.6752 13.7839 3.64899 13.7217C3.62277 13.6594 3.60926 13.5926 3.60926 13.5251C3.60926 13.4576 3.62277 13.3907 3.64899 13.3285C3.6752 13.2663 3.7136 13.2099 3.76192 13.1628C3.81024 13.1156 3.86751 13.0786 3.93035 13.0539C3.99319 13.0292 4.06034 13.0173 4.12783 13.019H12.1585C12.2906 13.0222 12.4162 13.0769 12.5084 13.1715C12.6007 13.266 12.6524 13.3929 12.6524 13.5251C12.6524 13.6572 12.6007 13.7841 12.5084 13.8787C12.4162 13.9732 12.2906 14.028 12.1585 14.0312Z" fill="#FF764A"/>
<path d="M21.9597 2.50781H9.7542C9.62007 2.50781 9.48726 2.53423 9.36334 2.58556C9.23942 2.63689 9.12682 2.71213 9.03198 2.80697C8.93714 2.90182 8.86191 3.01441 8.81058 3.13833C8.75926 3.26225 8.73284 3.39507 8.73285 3.5292V8.82244H14.2458C14.785 8.82308 15.3019 9.03756 15.6832 9.41883C16.0645 9.80009 16.279 10.317 16.2796 10.8562V13.5412L18.4903 15.5225C18.5768 15.6 18.684 15.6509 18.7988 15.6689C18.9136 15.6869 19.0311 15.6712 19.1373 15.6238C19.2434 15.5764 19.3335 15.4994 19.3967 15.4019C19.46 15.3044 19.4936 15.1906 19.4937 15.0744V13.1691C19.4937 13.0974 19.5078 13.0264 19.5352 12.9602C19.5626 12.8939 19.6028 12.8337 19.6535 12.783C19.7042 12.7323 19.7644 12.6921 19.8306 12.6647C19.8968 12.6373 19.9678 12.6231 20.0395 12.6231H21.9597C22.0939 12.6231 22.2267 12.5967 22.3506 12.5454C22.4745 12.494 22.5871 12.4188 22.682 12.324C22.7768 12.2291 22.852 12.1165 22.9034 11.9926C22.9547 11.8687 22.9811 11.7358 22.9811 11.6017V3.5292C22.9811 3.39507 22.9547 3.26225 22.9034 3.13833C22.852 3.01441 22.7768 2.90182 22.682 2.80697C22.5871 2.71213 22.4745 2.63689 22.3506 2.58556C22.2267 2.53423 22.0939 2.50781 21.9597 2.50781ZM19.8723 9.22121H17.2061C17.1386 9.22286 17.0714 9.21098 17.0086 9.18629C16.9458 9.16159 16.8885 9.12457 16.8402 9.07742C16.7919 9.03026 16.7535 8.97391 16.7272 8.91169C16.701 8.84947 16.6875 8.78263 16.6875 8.71511C16.6875 8.64759 16.701 8.58076 16.7272 8.51854C16.7535 8.45631 16.7919 8.39997 16.8402 8.35281C16.8885 8.30565 16.9458 8.26863 17.0086 8.24394C17.0714 8.21924 17.1386 8.20737 17.2061 8.20901H19.8723C19.9398 8.20737 20.007 8.21924 20.0698 8.24394C20.1327 8.26863 20.1899 8.30565 20.2382 8.35281C20.2866 8.39997 20.325 8.45631 20.3512 8.51854C20.3774 8.58076 20.3909 8.64759 20.3909 8.71511C20.3909 8.78263 20.3774 8.84947 20.3512 8.91169C20.325 8.97391 20.2866 9.03026 20.2382 9.07742C20.1899 9.12457 20.1327 9.16159 20.0698 9.18629C20.007 9.21098 19.9398 9.22286 19.8723 9.22121ZM19.8723 6.73425H11.8417C11.7742 6.73589 11.7071 6.72402 11.6442 6.69932C11.5814 6.67463 11.5241 6.63761 11.4758 6.59045C11.4275 6.54329 11.3891 6.48695 11.3629 6.42473C11.3366 6.36251 11.3231 6.29567 11.3231 6.22815C11.3231 6.16063 11.3366 6.09379 11.3629 6.03157C11.3891 5.96935 11.4275 5.913 11.4758 5.86585C11.5241 5.81869 11.5814 5.78167 11.6442 5.75698C11.7071 5.73228 11.7742 5.72041 11.8417 5.72205H19.8723C19.9398 5.72041 20.007 5.73228 20.0698 5.75698C20.1327 5.78167 20.1899 5.81869 20.2382 5.86585C20.2866 5.913 20.325 5.96935 20.3512 6.03157C20.3774 6.09379 20.3909 6.16063 20.3909 6.22815C20.3909 6.29567 20.3774 6.36251 20.3512 6.42473C20.325 6.48695 20.2866 6.54329 20.2382 6.59045C20.1899 6.63761 20.1327 6.67463 20.0698 6.69932C20.007 6.72402 19.9398 6.73589 19.8723 6.73425Z" fill="#FF764A"/>
</svg>
