<svg width="64" height="64" viewBox="0 0 64 64" fill="none" xmlns="http://www.w3.org/2000/svg">
<g filter="url(#filter0_d_1484_504)">
<circle cx="32" cy="30" r="30" fill="#1E3050" fill-opacity="0.3" shape-rendering="crispEdges"/>
</g>
<g clip-path="url(#clip0_1484_504)">
<path d="M40 8.4375C34.1652 8.4375 29.4375 13.1652 29.4375 19V21.0312C29.4375 21.7066 28.8941 22.25 28.2188 22.25C27.5434 22.25 27 21.7066 27 21.0312V19C27 11.8195 32.8195 6 40 6C47.1805 6 53 11.8195 53 19V26.3176C53 28.7855 50.9992 30.7863 48.5262 30.7863L42.925 30.7812C42.5035 31.5074 41.7164 32 40.8125 32H39.1875C37.8418 32 36.75 30.9082 36.75 29.5625C36.75 28.2168 37.8418 27.125 39.1875 27.125H40.8125C41.7164 27.125 42.5035 27.6176 42.925 28.3438L48.5312 28.3488C49.6535 28.3488 50.5625 27.4398 50.5625 26.3176V19C50.5625 13.1652 45.8348 8.4375 40 8.4375ZM34.3125 16.5625H35.125C36.0238 16.5625 36.75 17.2887 36.75 18.1875V23.875C36.75 24.7738 36.0238 25.5 35.125 25.5H34.3125C32.5199 25.5 31.0625 24.0426 31.0625 22.25V19.8125C31.0625 18.0199 32.5199 16.5625 34.3125 16.5625ZM45.6875 16.5625C47.4801 16.5625 48.9375 18.0199 48.9375 19.8125V22.25C48.9375 24.0426 47.4801 25.5 45.6875 25.5H44.875C43.9762 25.5 43.25 24.7738 43.25 23.875V18.1875C43.25 17.2887 43.9762 16.5625 44.875 16.5625H45.6875Z" fill="#1E3050"/>
</g>
<g clip-path="url(#clip1_1484_504)">
<path d="M15 29.25C15 27.4574 16.435 26 18.2 26H27.8C29.565 26 31 27.4574 31 29.25V48.75C31 50.5426 29.565 52 27.8 52H18.2C16.435 52 15 50.5426 15 48.75V29.25ZM18.2 34.125V37.375C18.2 38.2738 18.915 39 19.8 39H26.2C27.085 39 27.8 38.2738 27.8 37.375V34.125C27.8 33.2262 27.085 32.5 26.2 32.5H19.8C18.915 32.5 18.2 33.2262 18.2 34.125ZM19 43.875C19.3183 43.875 19.6235 43.7466 19.8485 43.518C20.0736 43.2895 20.2 42.9795 20.2 42.6562C20.2 42.333 20.0736 42.023 19.8485 41.7945C19.6235 41.5659 19.3183 41.4375 19 41.4375C18.6817 41.4375 18.3765 41.5659 18.1515 41.7945C17.9264 42.023 17.8 42.333 17.8 42.6562C17.8 42.9795 17.9264 43.2895 18.1515 43.518C18.3765 43.7466 18.6817 43.875 19 43.875ZM20.2 46.7188C20.2 46.3955 20.0736 46.0855 19.8485 45.857C19.6235 45.6284 19.3183 45.5 19 45.5C18.6817 45.5 18.3765 45.6284 18.1515 45.857C17.9264 46.0855 17.8 46.3955 17.8 46.7188C17.8 47.042 17.9264 47.352 18.1515 47.5805C18.3765 47.8091 18.6817 47.9375 19 47.9375C19.3183 47.9375 19.6235 47.8091 19.8485 47.5805C20.0736 47.352 20.2 47.042 20.2 46.7188ZM23 43.875C23.3183 43.875 23.6235 43.7466 23.8485 43.518C24.0736 43.2895 24.2 42.9795 24.2 42.6562C24.2 42.333 24.0736 42.023 23.8485 41.7945C23.6235 41.5659 23.3183 41.4375 23 41.4375C22.6817 41.4375 22.3765 41.5659 22.1515 41.7945C21.9264 42.023 21.8 42.333 21.8 42.6562C21.8 42.9795 21.9264 43.2895 22.1515 43.518C22.3765 43.7466 22.6817 43.875 23 43.875ZM24.2 46.7188C24.2 46.3955 24.0736 46.0855 23.8485 45.857C23.6235 45.6284 23.3183 45.5 23 45.5C22.6817 45.5 22.3765 45.6284 22.1515 45.857C21.9264 46.0855 21.8 46.3955 21.8 46.7188C21.8 47.042 21.9264 47.352 22.1515 47.5805C22.3765 47.8091 22.6817 47.9375 23 47.9375C23.3183 47.9375 23.6235 47.8091 23.8485 47.5805C24.0736 47.352 24.2 47.042 24.2 46.7188ZM27 43.875C27.3183 43.875 27.6235 43.7466 27.8485 43.518C28.0736 43.2895 28.2 42.9795 28.2 42.6562C28.2 42.333 28.0736 42.023 27.8485 41.7945C27.6235 41.5659 27.3183 41.4375 27 41.4375C26.6817 41.4375 26.3765 41.5659 26.1515 41.7945C25.9264 42.023 25.8 42.333 25.8 42.6562C25.8 42.9795 25.9264 43.2895 26.1515 43.518C26.3765 43.7466 26.6817 43.875 27 43.875ZM28.2 46.7188C28.2 46.3955 28.0736 46.0855 27.8485 45.857C27.6235 45.6284 27.3183 45.5 27 45.5C26.6817 45.5 26.3765 45.6284 26.1515 45.857C25.9264 46.0855 25.8 46.3955 25.8 46.7188C25.8 47.042 25.9264 47.352 26.1515 47.5805C26.3765 47.8091 26.6817 47.9375 27 47.9375C27.3183 47.9375 27.6235 47.8091 27.8485 47.5805C28.0736 47.352 28.2 47.042 28.2 46.7188ZM21.4 28.4375C20.96 28.4375 20.6 28.8031 20.6 29.25C20.6 29.6969 20.96 30.0625 21.4 30.0625H24.6C25.04 30.0625 25.4 29.6969 25.4 29.25C25.4 28.8031 25.04 28.4375 24.6 28.4375H21.4Z" fill="#1E3050"/>
</g>
<defs>
<filter id="filter0_d_1484_504" x="0" y="0" width="64" height="64" filterUnits="userSpaceOnUse" color-interpolation-filters="sRGB">
<feFlood flood-opacity="0" result="BackgroundImageFix"/>
<feColorMatrix in="SourceAlpha" type="matrix" values="0 0 0 0 0 0 0 0 0 0 0 0 0 0 0 0 0 0 127 0" result="hardAlpha"/>
<feOffset dy="2"/>
<feGaussianBlur stdDeviation="1"/>
<feComposite in2="hardAlpha" operator="out"/>
<feColorMatrix type="matrix" values="0 0 0 0 0.117647 0 0 0 0 0.188235 0 0 0 0 0.313726 0 0 0 0.25 0"/>
<feBlend mode="normal" in2="BackgroundImageFix" result="effect1_dropShadow_1484_504"/>
<feBlend mode="normal" in="SourceGraphic" in2="effect1_dropShadow_1484_504" result="shape"/>
</filter>
<clipPath id="clip0_1484_504">
<rect width="26" height="26" fill="white" transform="translate(27 6)"/>
</clipPath>
<clipPath id="clip1_1484_504">
<rect width="16" height="26" fill="white" transform="translate(15 26)"/>
</clipPath>
</defs>
</svg>
