<svg width="64" height="64" viewBox="0 0 64 64" fill="none" xmlns="http://www.w3.org/2000/svg">
<g filter="url(#filter0_d_1484_503)">
<circle cx="32" cy="30" r="30" fill="#1E3050" fill-opacity="0.3" shape-rendering="crispEdges"/>
</g>
<path d="M22.7063 20H26V26H18.9563L20.8562 21.2562C21.1562 20.5 21.8875 20 22.7063 20ZM29 26V20H34.075C34.6813 20 35.2563 20.275 35.6375 20.75L39.8375 26H29ZM45.0125 26.0625L38.7625 18.25C37.625 16.825 35.9 16 34.075 16H22.7063C20.25 16 18.0437 17.4938 17.1375 19.7688L14.5375 26.275C13.05 26.8625 12 28.3062 12 30V37C12 38.1063 12.8937 39 14 39H16.0813C16.5563 41.8375 19.025 44 22 44C24.975 44 27.4437 41.8375 27.9187 39H36.0812C36.5562 41.8375 39.025 44 42 44C44.975 44 47.4438 41.8375 47.9188 39H50C51.1063 39 52 38.1063 52 37V34C52 29.925 48.95 26.5625 45.0125 26.0625ZM39.1688 37C39.2961 36.6235 39.4969 36.2761 39.7597 35.9778C40.0224 35.6796 40.3418 35.4366 40.6992 35.2628C41.0567 35.0891 41.4451 34.9881 41.8419 34.9658C42.2387 34.9434 42.636 35.0001 43.0108 35.1326C43.3855 35.2651 43.7301 35.4708 44.0247 35.7376C44.3192 36.0044 44.5579 36.3271 44.7267 36.6869C44.8954 37.0467 44.9911 37.4365 45.0079 37.8336C45.0248 38.2307 44.9626 38.6272 44.825 39C44.6977 39.3765 44.4968 39.7239 44.2341 40.0222C43.9713 40.3204 43.652 40.5634 43.2945 40.7372C42.9371 40.9109 42.5486 41.0119 42.1518 41.0342C41.755 41.0566 41.3577 40.9999 40.983 40.8674C40.6083 40.7349 40.2636 40.5292 39.9691 40.2624C39.6745 39.9956 39.4359 39.6729 39.2671 39.3131C39.0983 38.9533 39.0027 38.5635 38.9858 38.1664C38.9689 37.7693 39.0311 37.3728 39.1688 37ZM22 35C22.7956 35 23.5587 35.3161 24.1213 35.8787C24.6839 36.4413 25 37.2044 25 38C25 38.7956 24.6839 39.5587 24.1213 40.1213C23.5587 40.6839 22.7956 41 22 41C21.2044 41 20.4413 40.6839 19.8787 40.1213C19.3161 39.5587 19 38.7956 19 38C19 37.2044 19.3161 36.4413 19.8787 35.8787C20.4413 35.3161 21.2044 35 22 35Z" fill="#1E3050"/>
<defs>
<filter id="filter0_d_1484_503" x="0" y="0" width="64" height="64" filterUnits="userSpaceOnUse" color-interpolation-filters="sRGB">
<feFlood flood-opacity="0" result="BackgroundImageFix"/>
<feColorMatrix in="SourceAlpha" type="matrix" values="0 0 0 0 0 0 0 0 0 0 0 0 0 0 0 0 0 0 127 0" result="hardAlpha"/>
<feOffset dy="2"/>
<feGaussianBlur stdDeviation="1"/>
<feComposite in2="hardAlpha" operator="out"/>
<feColorMatrix type="matrix" values="0 0 0 0 0.117647 0 0 0 0 0.188235 0 0 0 0 0.313726 0 0 0 0.25 0"/>
<feBlend mode="normal" in2="BackgroundImageFix" result="effect1_dropShadow_1484_503"/>
<feBlend mode="normal" in="SourceGraphic" in2="effect1_dropShadow_1484_503" result="shape"/>
</filter>
</defs>
</svg>
